<svg width="37" height="54" viewBox="0 0 37 54" fill="none" xmlns="http://www.w3.org/2000/svg">
<rect x="2" y="26" width="31.1111" height="23.3333" fill="url(#paint0_linear_1143_3246)"/>
<path d="M11.6127 28.5042H10.3537C9.52306 28.5042 8.84961 29.1771 8.84961 30.0077V33.4355H11.6126L11.6127 28.5042Z" fill="#FFC266"/>
<path d="M13.2793 28.5042H17.1265V33.4355H13.2793V28.5042Z" fill="#FFC266"/>
<path d="M18.8062 28.5042H22.8168V33.4355H18.8062V28.5042Z" fill="#FFC266"/>
<path d="M13.2793 41.9568H17.1265V46.8881H13.2793V41.9568Z" fill="#FFC266"/>
<path d="M8.84912 45.385C8.84912 46.2157 9.52259 46.8886 10.3532 46.8886H11.6122V41.9573H8.84915L8.84912 45.385Z" fill="#FFC266"/>
<path d="M34.2519 1.006e-06H9.2796C8.77268 -0.000519411 8.28606 0.200894 7.92752 0.559483L0.559483 7.93898C0.200894 8.29757 -0.000518614 8.7842 1.00292e-06 9.29105V52.1582C1.00292e-06 53.1756 0.824395 54 1.84185 54H34.2513C34.74 54 35.2084 53.8064 35.554 53.4608C35.899 53.1152 36.0932 52.6468 36.0932 52.1581V1.84185C36.0932 0.824368 35.2688 1.006e-06 34.2513 1.006e-06H34.2519ZM28.9126 45.3853C28.9157 46.2284 28.5826 47.0376 27.9878 47.6352C27.3929 48.2322 26.5847 48.5678 25.7416 48.5678H10.3529C9.51184 48.5678 8.70516 48.2337 8.1108 47.6388C7.51593 47.0445 7.18179 46.2377 7.18179 45.3967V30.0081C7.18179 29.167 7.51592 28.3609 8.1108 27.766C8.70515 27.1711 9.5119 26.837 10.3529 26.837H25.7416C26.5826 26.837 27.3893 27.1711 27.9836 27.766C28.5785 28.3609 28.9126 29.1671 28.9126 30.0081L28.9126 45.3853Z" fill="url(#paint1_linear_1143_3246)"/>
<path d="M25.3839 11.8094C25.4342 11.763 25.4733 11.7068 25.4985 11.6446C25.5238 11.5825 25.5345 11.5159 25.53 11.4495C25.5256 11.383 25.506 11.3183 25.4727 11.2597C25.4393 11.2011 25.393 11.1501 25.3369 11.1102C23.2049 9.63761 20.6358 8.84623 17.9999 8.85011C15.2589 8.85011 12.7229 9.68801 10.6629 11.1102C10.6068 11.15 10.5604 11.201 10.527 11.2595C10.4935 11.3181 10.4739 11.3828 10.4693 11.4493C10.4647 11.5157 10.4754 11.5823 10.5005 11.6445C10.5257 11.7067 10.5647 11.7629 10.6149 11.8094C10.7023 11.8911 10.8174 11.9408 10.9398 11.9495C11.0621 11.9582 11.1837 11.9254 11.2829 11.8569C13.2381 10.5164 15.5888 9.7966 17.9999 9.80011C20.5069 9.80011 22.8269 10.562 24.7159 11.8559C24.9209 11.9965 25.2059 11.9794 25.3839 11.8094Z" fill="white"/>
<path d="M23.229 13.8574C23.2806 13.8102 23.3204 13.7526 23.3456 13.689C23.3707 13.6253 23.3807 13.5571 23.3747 13.4893C23.3686 13.4215 23.3468 13.3559 23.3107 13.2971C23.2746 13.2384 23.2252 13.188 23.166 13.1497C21.6284 12.2008 19.8336 11.6971 18 11.7C16.095 11.7 14.32 12.232 12.834 13.1497C12.7746 13.1878 12.7249 13.2381 12.6886 13.2968C12.6523 13.3556 12.6303 13.4213 12.6243 13.4892C12.6182 13.5571 12.6283 13.6254 12.6537 13.6891C12.6791 13.7529 12.7192 13.8104 12.771 13.8574C12.8562 13.9364 12.9672 13.9856 13.0857 13.9968C13.2041 14.008 13.3231 13.9806 13.423 13.9192C14.7891 13.088 16.3778 12.6474 18 12.65C19.6219 12.6476 21.2103 13.0881 22.576 13.9192C22.782 14.0446 23.056 14.0218 23.229 13.8574ZM21.046 15.9313C21.272 15.7166 21.231 15.3565 20.946 15.2188C20.0335 14.7776 19.0239 14.5484 18 14.55C16.94 14.55 15.938 14.7913 15.054 15.2188C14.769 15.3565 14.728 15.7166 14.954 15.9313L14.969 15.9455C15.129 16.0975 15.376 16.126 15.58 16.031C16.3333 15.6803 17.1612 15.4986 18 15.5C18.868 15.5 19.69 15.6909 20.42 16.032C20.623 16.127 20.87 16.0985 21.03 15.9455L21.046 15.9313ZM19.06 17.818C19.256 17.6318 19.258 17.324 19.02 17.191C18.7115 17.0165 18.3591 16.9246 18 16.925C17.641 16.9246 17.2886 17.0165 16.98 17.191C16.742 17.324 16.744 17.6318 16.94 17.818L17.646 18.4887C17.7398 18.5777 17.867 18.6277 17.9995 18.6277C18.1321 18.6277 18.2593 18.5777 18.353 18.4887L19.06 17.818Z" fill="white"/>
<path d="M18.8062 41.9568H22.8168V46.8881H18.8062V41.9568Z" fill="#FFC266"/>
<path d="M25.7424 28.5042H24.4834V33.4355H27.2464V30.0077C27.2464 29.1771 26.573 28.5042 25.7424 28.5042Z" fill="#FFC266"/>
<path d="M8.84937 40.2901H23.7717C24.1647 40.2901 24.4832 40.6086 24.4832 41.001V46.8884H25.7421C26.1408 46.8884 26.5233 46.7302 26.8054 46.4481C27.0875 46.166 27.2462 45.7835 27.2462 45.3849V35.1606H8.84912L8.84937 40.2901Z" fill="#FFC266"/>
<defs>
<linearGradient id="paint0_linear_1143_3246" x1="17.5556" y1="26" x2="17.5556" y2="49.3333" gradientUnits="userSpaceOnUse">
<stop stop-color="#D88D1C"/>
<stop offset="1" stop-color="#F2A50F"/>
</linearGradient>
<linearGradient id="paint1_linear_1143_3246" x1="60.9682" y1="-30.6486" x2="-17.6627" y2="21.4584" gradientUnits="userSpaceOnUse">
<stop stop-color="#7F87A0"/>
<stop offset="1" stop-color="#314176"/>
</linearGradient>
</defs>
</svg>
