<svg width="80" height="54" viewBox="0 0 80 54" fill="none" xmlns="http://www.w3.org/2000/svg">
<path d="M38.5871 1.79933C38.8731 1.04199 38.1876 0.276402 37.4034 0.477298L9.50609 7.62376C9.25024 7.6893 9.03071 7.8534 8.89542 8.08022L0.859155 21.5534C0.471188 22.2038 0.918997 23.0327 1.67568 23.0647L29.3789 24.2378C29.8101 24.256 30.2043 23.9957 30.3568 23.592L38.5871 1.79933Z" fill="url(#paint0_linear_1173_1586)"/>
<path d="M78.3243 23.0652C79.081 23.0332 79.5288 22.2043 79.1408 21.5538L71.1046 8.08071C70.9693 7.85388 70.7498 7.68979 70.4939 7.62425L42.5974 0.47798C41.813 0.277047 41.1275 1.04293 41.4138 1.80032L49.6521 23.592C49.8046 23.9955 50.1987 24.2557 50.6298 24.2375L78.3243 23.0652Z" fill="url(#paint1_linear_1173_1586)"/>
<path d="M49.5997 25.1953C49.5996 25.1954 49.5995 25.1955 49.5994 25.1955C49.4064 25.1954 49.2421 25.0797 49.1746 24.8959L42.3994 6.95136C42.0066 5.91102 40.4639 6.19256 40.4639 7.30459V52.6363C40.4639 53.2894 41.0797 53.7672 41.7123 53.605L69.9881 46.3535C70.4304 46.2401 70.7397 45.8415 70.7397 45.3849V25.3402C70.7397 24.7713 70.2656 24.317 69.6972 24.3411L49.6192 25.195H49.6C49.5998 25.195 49.5997 25.1951 49.5997 25.1953Z" fill="url(#paint2_linear_1173_1586)"/>
<path d="M30.4105 25.196C30.4105 25.1957 30.4103 25.1955 30.41 25.1955H30.391L10.313 24.3416C9.74455 24.3174 9.27051 24.7718 9.27051 25.3407V45.3854C9.27051 45.842 9.5798 46.2406 10.0221 46.354L38.2979 53.6055C38.9305 53.7677 39.5463 53.2899 39.5463 52.6368V7.31533C39.5463 6.2033 38.0036 5.92176 37.6108 6.96211L30.8356 24.9066C30.7681 25.08 30.5942 25.1963 30.4111 25.1965C30.4108 25.1965 30.4106 25.1963 30.4105 25.196Z" fill="url(#paint3_linear_1173_1586)"/>
<defs>
<linearGradient id="paint0_linear_1173_1586" x1="66.3287" y1="-13.7739" x2="31.8769" y2="41.4932" gradientUnits="userSpaceOnUse">
<stop stop-color="#7F87A0"/>
<stop offset="1" stop-color="#314176"/>
</linearGradient>
<linearGradient id="paint1_linear_1173_1586" x1="107.062" y1="-13.773" x2="72.6119" y2="41.4934" gradientUnits="userSpaceOnUse">
<stop stop-color="#7F87A0"/>
<stop offset="1" stop-color="#314176"/>
</linearGradient>
<linearGradient id="paint2_linear_1173_1586" x1="91.6055" y1="-27.7454" x2="20.3392" y2="13.314" gradientUnits="userSpaceOnUse">
<stop stop-color="#7F87A0"/>
<stop offset="1" stop-color="#314176"/>
</linearGradient>
<linearGradient id="paint3_linear_1173_1586" x1="60.4121" y1="-27.7289" x2="-10.8472" y2="13.3346" gradientUnits="userSpaceOnUse">
<stop stop-color="#7F87A0"/>
<stop offset="1" stop-color="#314176"/>
</linearGradient>
</defs>
</svg>
