<svg width="120" height="97" viewBox="0 0 120 97" fill="none" xmlns="http://www.w3.org/2000/svg">
<circle opacity="0.1" cx="62.4273" cy="44.5108" r="38.5108" stroke="#8ED259" stroke-width="2"/>
<g filter="url(#filter0_d_908_1382)">
<circle cx="62.4272" cy="44.5109" r="27.9467" fill="#8ED259"/>
</g>
<path d="M53.4331 44.511L59.8576 50.9355L72.7067 38.0864" stroke="white" stroke-width="4" stroke-linecap="round" stroke-linejoin="round"/>
<path d="M112.247 70.3015C112.465 69.2352 113.988 69.2352 114.206 70.3015L114.244 70.4847C114.324 70.8772 114.631 71.1839 115.023 71.2642L115.206 71.3016C116.273 71.5195 116.273 73.0431 115.206 73.2611L115.023 73.2985C114.631 73.3787 114.324 73.6855 114.244 74.078L114.206 74.2612C113.988 75.3275 112.465 75.3275 112.247 74.2612L112.209 74.078C112.129 73.6855 111.822 73.3787 111.43 73.2985L111.247 73.2611C110.18 73.0431 110.18 71.5195 111.247 71.3016L111.43 71.2642C111.822 71.1839 112.129 70.8772 112.209 70.4847L112.247 70.3015Z" fill="#8ED259"/>
<path opacity="0.2" d="M14.0689 79.1636C14.2792 78.1348 15.7491 78.1348 15.9593 79.1636C16.0367 79.5422 16.3327 79.8382 16.7113 79.9156C17.7401 80.1259 17.7401 81.5957 16.7113 81.806C16.3327 81.8834 16.0367 82.1793 15.9593 82.558C15.7491 83.5868 14.2792 83.5868 14.0689 82.558C13.9915 82.1793 13.6956 81.8834 13.3169 81.806C12.2881 81.5957 12.2881 80.1259 13.3169 79.9156C13.6956 79.8382 13.9915 79.5422 14.0689 79.1636Z" fill="#4263EB"/>
<path opacity="0.2" d="M113.173 15.9022C113.361 14.9837 114.673 14.9837 114.861 15.9022C114.93 16.2403 115.194 16.5046 115.532 16.5737C116.451 16.7614 116.451 18.0738 115.532 18.2615C115.194 18.3306 114.93 18.5949 114.861 18.933C114.673 19.8515 113.361 19.8515 113.173 18.933C113.104 18.5949 112.84 18.3306 112.502 18.2615C111.583 18.0738 111.583 16.7614 112.502 16.5737C112.84 16.5046 113.104 16.2403 113.173 15.9022Z" fill="#4263EB"/>
<path d="M6.13221 17.6956C6.35016 16.6292 7.87374 16.6292 8.09169 17.6956L8.1866 18.1599C8.26683 18.5524 8.57358 18.8592 8.9661 18.9394L9.43044 19.0343C10.4968 19.2523 10.4968 20.7758 9.43044 20.9938L8.96609 21.0887C8.57358 21.1689 8.26683 21.4757 8.1866 21.8682L8.09169 22.3325C7.87374 23.3989 6.35015 23.3989 6.13221 22.3325L6.0373 21.8682C5.95707 21.4757 5.65032 21.1689 5.2578 21.0887L4.79345 20.9938C3.72712 20.7758 3.72712 19.2523 4.79346 19.0343L5.2578 18.9394C5.65032 18.8592 5.95707 18.5524 6.0373 18.1599L6.13221 17.6956Z" fill="#8ED259"/>
<defs>
<filter id="filter0_d_908_1382" x="14.4805" y="0.564209" width="95.8936" height="95.8933" filterUnits="userSpaceOnUse" color-interpolation-filters="sRGB">
<feFlood flood-opacity="0" result="BackgroundImageFix"/>
<feColorMatrix in="SourceAlpha" type="matrix" values="0 0 0 0 0 0 0 0 0 0 0 0 0 0 0 0 0 0 127 0" result="hardAlpha"/>
<feOffset dy="4"/>
<feGaussianBlur stdDeviation="10"/>
<feComposite in2="hardAlpha" operator="out"/>
<feColorMatrix type="matrix" values="0 0 0 0 0.555595 0 0 0 0 0.825 0 0 0 0 0.347188 0 0 0 0.3 0"/>
<feBlend mode="normal" in2="BackgroundImageFix" result="effect1_dropShadow_908_1382"/>
<feBlend mode="normal" in="SourceGraphic" in2="effect1_dropShadow_908_1382" result="shape"/>
</filter>
</defs>
</svg>
