<svg width="20" height="20" viewBox="0 0 20 20" fill="none" xmlns="http://www.w3.org/2000/svg">
<g clip-path="url(#clip0_677_1163)">
<path d="M19.9999 10.0612C19.9999 4.50373 15.5224 -0.00127029 9.99994 -0.00127029C4.47494 -2.02941e-05 -0.00256348 4.50373 -0.00256348 10.0625C-0.00256348 15.0837 3.65494 19.2462 8.43494 20.0012V12.97H5.89744V10.0625H8.43744V7.84373C8.43744 5.32248 9.93119 3.92998 12.2149 3.92998C13.3099 3.92998 14.4537 4.12623 14.4537 4.12623V6.60123H13.1924C11.9512 6.60123 11.5637 7.37748 11.5637 8.17373V10.0612H14.3362L13.8937 12.9687H11.5624V20C16.3424 19.245 19.9999 15.0825 19.9999 10.0612Z" fill="#3D5A98"/>
</g>
<defs>
<clipPath id="clip0_677_1163">
<rect width="20" height="20" fill="white"/>
</clipPath>
</defs>
</svg>
