<svg width="20" height="20" viewBox="0 0 20 20" fill="none" xmlns="http://www.w3.org/2000/svg">
<mask id="mask0_677_1167" style="mask-type:luminance" maskUnits="userSpaceOnUse" x="10" y="8" width="10" height="10">
<path d="M19.6011 10.2247C19.6011 9.51685 19.5393 8.83146 19.4213 8.17978H10V12.0506H15.382C15.1517 13.3034 14.4438 14.3596 13.3876 15.0674V17.5787H16.618C18.5056 15.8371 19.6011 13.2753 19.6011 10.2247Z" fill="white"/>
</mask>
<g mask="url(#mask0_677_1167)">
<path d="M25.1573 2.62356H4.44385V23.1292H25.1573V2.62356Z" fill="#3E82F1"/>
</g>
<mask id="mask1_677_1167" style="mask-type:luminance" maskUnits="userSpaceOnUse" x="1" y="11" width="16" height="9">
<path d="M9.99997 20C12.7022 20 14.9663 19.1067 16.6179 17.5787L13.3876 15.0674C12.4944 15.6685 11.3483 16.0225 9.99997 16.0225C7.39323 16.0225 5.19098 14.264 4.40446 11.8989H1.06177V14.4888C2.70783 17.7584 6.08986 20 9.99997 20Z" fill="white"/>
</mask>
<g mask="url(#mask1_677_1167)">
<path d="M22.1742 6.34265H-4.49438V25.5561H22.1742V6.34265Z" fill="#32A753"/>
</g>
<mask id="mask2_677_1167" style="mask-type:luminance" maskUnits="userSpaceOnUse" x="0" y="5" width="5" height="10">
<path d="M4.40449 11.8989C4.20225 11.2978 4.08989 10.6573 4.08989 10C4.08989 9.34269 4.20225 8.70224 4.40449 8.10112V5.51123H1.0618C0.382023 6.85955 0 8.38764 0 10C0 11.6124 0.387641 13.1404 1.0618 14.4888L4.40449 11.8989Z" fill="white"/>
</mask>
<g mask="url(#mask2_677_1167)">
<path d="M9.9607 -0.0449448H-5.55615V20.0506H9.9607V-0.0449448Z" fill="#F9BB00"/>
</g>
<mask id="mask3_677_1167" style="mask-type:luminance" maskUnits="userSpaceOnUse" x="1" y="0" width="16" height="9">
<path d="M9.99997 3.97753C11.4663 3.97753 12.7865 4.48315 13.8202 5.47191L16.691 2.60112C14.955 0.988764 12.691 0 9.99997 0C6.08986 0 2.70783 2.24157 1.06177 5.51124L4.40446 8.10112C5.19098 5.73596 7.39323 3.97753 9.99997 3.97753Z" fill="white"/>
</mask>
<g mask="url(#mask3_677_1167)">
<path d="M22.2472 -5.55618H-4.49438V13.6573H22.2472V-5.55618Z" fill="#E74133"/>
</g>
</svg>
