<svg width="180" height="180" viewBox="0 0 180 180" fill="none" xmlns="http://www.w3.org/2000/svg">
<path d="M57.6016 0H72.0018V7.19931H57.6016V0Z" fill="black"/>
<path d="M86.3984 0H93.5977V7.19931H107.998V14.3999H86.3984V0Z" fill="black"/>
<path d="M115.201 0H122.401V79.1994H115.201V64.8005H108.001V71.9998H100.798V64.8005H93.601V57.5999H86.4017V36.0004H79.2011V21.6002H57.6016V14.4009H72.0018V7.20027H79.2011V14.4009H86.4017V21.6002H108.001V28.8008H93.601V50.4003H100.798V43.1997H108.001V57.5999H115.201V36.0004H108.001V28.8008L115.201 28.8011V0Z" fill="black"/>
<path d="M0 0V50.3996H50.3996V0H0ZM43.1997 43.1997H7.19995V7.19995H43.1997V43.1997Z" fill="black"/>
<path d="M129.6 0V50.3996H180V0H129.6ZM172.8 43.1997H136.8V7.19995H172.8V43.1997Z" fill="black"/>
<path d="M14.3994 14.3999H35.9989V35.9994H14.3994V14.3999Z" fill="black"/>
<path d="M144 14.3999H165.6V35.9994H144V14.3999Z" fill="black"/>
<path d="M57.6016 28.8008H72.0018V43.1997H64.8025V36.0004H57.6019L57.6016 28.8008Z" fill="black"/>
<path d="M57.6019 43.1992H64.8025V50.3998H72.0018V43.1992H79.2011V57.5994H86.4017V64.8H93.601V71.9993H86.4017V79.1986H79.2011V64.7997H72.0018V57.5991H57.6016L57.6019 43.1992Z" fill="black"/>
<path d="M35.999 57.6003H50.3992V64.7997H35.999V57.6003Z" fill="black"/>
<path d="M144 57.6003H151.2V64.7997H144V57.6003Z" fill="black"/>
<path d="M158.397 57.6003H165.596V72.0006H179.997V93.6001H165.596V79.1999H158.397V57.6003Z" fill="black"/>
<path d="M172.796 57.6003H179.996V64.7997H172.796V57.6003Z" fill="black"/>
<path d="M7.19727 64.8H21.5975V71.9994H7.19727V64.8Z" fill="black"/>
<path d="M28.7998 64.8H35.9991V71.9994H28.7998V64.8Z" fill="black"/>
<path d="M0 72.0002H7.19931V79.1995H0V72.0002Z" fill="black"/>
<path d="M43.2021 72.0002H50.4015V79.1995H43.2021V72.0002Z" fill="black"/>
<path d="M14.3975 79.1985H28.7978V93.5987H21.5972V100.799H14.3979V93.5987H7.19727V86.3994H14.3979L14.3975 79.1985Z" fill="black"/>
<path d="M35.999 79.1985H43.1983V86.3978H35.999V79.1985Z" fill="black"/>
<path d="M107.998 79.1985H115.197V86.3978H107.998V79.1985Z" fill="black"/>
<path d="M43.2021 86.3982H50.4015V93.5975H43.2021V86.3982Z" fill="black"/>
<path d="M0 93.5984H7.19931V122.399H0V93.5984Z" fill="black"/>
<path d="M28.7998 93.5984H35.9991V100.802H28.7998V93.5984Z" fill="black"/>
<path d="M21.5996 100.8H28.7989V107.999H21.5996V100.8Z" fill="black"/>
<path d="M43.2021 100.8H50.4015V107.999H43.2021V100.8Z" fill="black"/>
<path d="M57.6016 100.8H64.8022V107.999H72.0015V122.399H64.8022V129.598H57.6016V100.8Z" fill="black"/>
<path d="M136.797 100.8H151.195V107.999H136.797V100.8Z" fill="black"/>
<path d="M165.6 100.8H180V107.999H165.6V100.8Z" fill="black"/>
<path d="M28.7998 107.999H35.9991V115.199H28.7998V107.999Z" fill="black"/>
<path d="M14.3994 115.199H21.5987V122.402H14.3994V115.199Z" fill="black"/>
<path d="M35.999 115.199H50.3992V122.402H35.999V115.199Z" fill="black"/>
<path d="M71.9985 122.399H79.1978V129.598H71.9985V122.399Z" fill="black"/>
<path d="M179.999 122.399V115.199H165.598V108H151.198V115.199H122.399V108H129.598V100.8H136.799V93.5997H151.198V100.8H158.399V79.2008L151.198 79.1995V72.0002H143.999V79.1995H136.799V72.0002H143.999V64.8009H136.799V57.6016L129.599 57.6003V79.1999H122.399V100.799L107.999 100.801V86.4004H100.796V100.801H93.5968V79.2011H86.3975V93.6013H79.1982V79.2011H57.5986V86.4004H64.7979V100.801H71.9998V108H79.1991V100.801H86.3984L86.3997 108H79.2004V122.4H86.3997V129.599H93.599V115.199H100.798V129.599H107.999V122.4H115.198V129.599H107.999V136.8H100.796V158.4H86.3994V165.599H100.797L100.796 172.799H86.3994V179.999H122.399V172.799H115.199V165.599H107.999V143.999H115.199V151.199H122.399V158.399H129.598V151.199H151.198V158.399H158.399V151.199H165.598V143.999H158.399V129.599H151.198V122.4L179.999 122.399ZM115.199 115.199H108V108H115.199V115.199ZM144 143.999H122.4V122.4H144V143.999Z" fill="black"/>
<path d="M79.1982 129.599H86.3976V143.999H79.1982V129.599Z" fill="black"/>
<path d="M129.6 129.599H136.803V136.802H129.6V129.599Z" fill="black"/>
<path d="M172.796 129.599H179.996V143.999H172.796V129.599Z" fill="black"/>
<path d="M0 129.599V179.999H50.3996V129.599H0ZM43.1997 172.799H7.19995V136.799H43.1997V172.799Z" fill="black"/>
<path d="M57.6016 136.799H72.0018V151.198H79.2011V158.398H72.0018V165.598H64.8025V143.998H57.6019L57.6016 136.799Z" fill="black"/>
<path d="M14.3994 143.999H35.9989V165.598H14.3994V143.999Z" fill="black"/>
<path d="M86.3984 143.999H93.5977V151.198H86.3984V143.999Z" fill="black"/>
<path d="M172.796 151.199H179.996V179.999H172.796V151.199Z" fill="black"/>
<path d="M115.201 158.398H122.404V165.598H115.201V158.398Z" fill="black"/>
<path d="M129.6 158.398H144V165.598H158.401V179.998H151.2V172.799H136.801V179.998H129.6L129.6 158.398Z" fill="black"/>
<path d="M158.397 158.398H165.596V165.598H158.397V158.398Z" fill="black"/>
<path d="M79.1982 165.6H86.3976V172.803H79.1982V165.6Z" fill="black"/>
<path d="M64.7988 172.797H71.9981V179.996H64.7988V172.797Z" fill="black"/>
</svg>
