<svg width="20" height="20" viewBox="0 0 20 20" fill="none" xmlns="http://www.w3.org/2000/svg">
<path d="M6.2825 18.75C13.83 18.75 17.9587 12.4963 17.9587 7.0825C17.9587 6.9075 17.9587 6.73 17.9513 6.555C18.7551 5.97311 19.4488 5.25269 20 4.4275C19.2491 4.75856 18.4535 4.97676 17.6388 5.075C18.4969 4.56205 19.1397 3.75496 19.4475 2.80375C18.6412 3.28141 17.7588 3.61672 16.8387 3.795C16.2202 3.13628 15.4018 2.6999 14.5101 2.55345C13.6185 2.407 12.7034 2.55865 11.9067 2.98492C11.1099 3.41119 10.476 4.08829 10.1031 4.91133C9.73012 5.73436 9.63897 6.65742 9.84375 7.5375C8.21218 7.45569 6.61602 7.03184 5.1588 6.29343C3.70159 5.55502 2.41586 4.51856 1.385 3.25125C0.861675 4.1551 0.701967 5.22425 0.938308 6.24158C1.17465 7.25891 1.78932 8.14816 2.6575 8.72875C2.00692 8.70665 1.37065 8.53195 0.8 8.21875V8.275C0.801122 9.22185 1.12913 10.1393 1.72859 10.8722C2.32805 11.6051 3.16218 12.1086 4.09 12.2975C3.73783 12.3945 3.37404 12.4429 3.00875 12.4413C2.75123 12.442 2.49423 12.4182 2.24125 12.37C2.50348 13.1851 3.01409 13.8977 3.70156 14.4081C4.38903 14.9185 5.21892 15.2011 6.075 15.2163C4.62069 16.3585 2.82425 16.978 0.975 16.975C0.649151 16.9764 0.323529 16.9576 0 16.9188C1.87689 18.1153 4.05662 18.7507 6.2825 18.75Z" fill="#1DA1F2"/>
</svg>
