<svg width="167" height="19" viewBox="0 0 167 19" fill="none" xmlns="http://www.w3.org/2000/svg">
<path d="M0.08 1.224H8.576C10.192 1.224 11.464 1.624 12.392 2.424C13.336 3.224 13.808 4.368 13.808 5.856C13.808 6.56 13.648 7.216 13.328 7.824C13.008 8.432 12.552 8.912 11.96 9.264C12.776 9.584 13.376 10.048 13.76 10.656C14.144 11.248 14.336 12.024 14.336 12.984C14.336 14.008 14.096 14.904 13.616 15.672C13.136 16.424 12.488 17 11.672 17.4C10.872 17.8 9.976 18 8.984 18H0.08V1.224ZM7.64 7.872C8.888 7.872 9.512 7.288 9.512 6.12C9.512 5.464 9.352 5.016 9.032 4.776C8.712 4.52 8.224 4.392 7.568 4.392H4.328V7.872H7.64ZM7.904 14.832C8.624 14.832 9.16 14.696 9.512 14.424C9.864 14.152 10.04 13.672 10.04 12.984C10.04 12.296 9.856 11.8 9.488 11.496C9.12 11.176 8.56 11.016 7.808 11.016H4.328V14.832H7.904ZM25.3921 18.36C23.6961 18.36 22.1601 17.992 20.7841 17.256C19.4241 16.52 18.3441 15.496 17.5441 14.184C16.7601 12.856 16.3681 11.336 16.3681 9.624C16.3681 7.912 16.7601 6.392 17.5441 5.064C18.3441 3.736 19.4241 2.704 20.7841 1.968C22.1601 1.232 23.6961 0.863999 25.3921 0.863999C27.0721 0.863999 28.5921 1.232 29.9521 1.968C31.3281 2.704 32.4081 3.736 33.1921 5.064C33.9761 6.392 34.3681 7.912 34.3681 9.624C34.3681 11.336 33.9761 12.856 33.1921 14.184C32.4081 15.496 31.3281 16.52 29.9521 17.256C28.5921 17.992 27.0721 18.36 25.3921 18.36ZM25.3921 14.376C26.2401 14.376 27.0161 14.184 27.7201 13.8C28.4241 13.416 28.9841 12.864 29.4001 12.144C29.8161 11.424 30.0241 10.584 30.0241 9.624C30.0241 8.664 29.8161 7.832 29.4001 7.128C29.0001 6.408 28.4481 5.856 27.7441 5.472C27.0401 5.072 26.2561 4.872 25.3921 4.872C24.5121 4.872 23.7201 5.072 23.0161 5.472C22.3121 5.856 21.7521 6.408 21.3361 7.128C20.9361 7.832 20.7361 8.664 20.7361 9.624C20.7361 10.584 20.9361 11.424 21.3361 12.144C21.7521 12.864 22.3121 13.416 23.0161 13.8C23.7361 14.184 24.5281 14.376 25.3921 14.376ZM37.4834 1.224H41.7314V14.424H49.0274V18H37.4834V1.224ZM53.0302 4.8H48.3022V1.224H62.0302V4.8H57.2782V18H53.0302V4.8ZM74.9816 1.224H76.9016L83.2376 15.072L89.5736 1.224H91.4936V18H89.6456V5.04L83.7176 18H82.7576L76.8296 5.04V18H74.9816V1.224ZM104.601 18.36C102.953 18.36 101.457 18 100.113 17.28C98.7846 16.544 97.7366 15.512 96.9686 14.184C96.2006 12.856 95.8166 11.336 95.8166 9.624C95.8166 7.912 96.2006 6.392 96.9686 5.064C97.7366 3.736 98.7846 2.704 100.113 1.968C101.441 1.232 102.937 0.863999 104.601 0.863999C106.265 0.863999 107.761 1.232 109.089 1.968C110.417 2.704 111.465 3.736 112.233 5.064C113.001 6.392 113.385 7.912 113.385 9.624C113.385 11.336 113.001 12.856 112.233 14.184C111.465 15.512 110.409 16.544 109.065 17.28C107.737 18 106.249 18.36 104.601 18.36ZM104.601 16.68C105.881 16.68 107.049 16.392 108.105 15.816C109.161 15.24 109.993 14.424 110.601 13.368C111.209 12.296 111.513 11.048 111.513 9.624C111.513 8.216 111.209 6.984 110.601 5.928C110.009 4.856 109.185 4.032 108.129 3.456C107.089 2.864 105.929 2.568 104.649 2.568C103.353 2.568 102.177 2.856 101.121 3.432C100.065 4.008 99.2246 4.832 98.6006 5.904C97.9926 6.976 97.6886 8.216 97.6886 9.624C97.6886 11.048 97.9926 12.296 98.6006 13.368C99.2086 14.424 100.041 15.24 101.097 15.816C102.153 16.392 103.321 16.68 104.601 16.68ZM117.705 1.224H125.145C126.601 1.224 127.713 1.608 128.481 2.376C129.249 3.128 129.633 4.24 129.633 5.712C129.633 6.576 129.433 7.328 129.033 7.968C128.633 8.592 128.105 9.056 127.449 9.36C129.289 9.84 130.209 11.16 130.209 13.32C130.209 14.264 130.001 15.096 129.585 15.816C129.185 16.52 128.625 17.064 127.905 17.448C127.201 17.816 126.417 18 125.553 18H117.705V1.224ZM125.001 8.616C125.897 8.616 126.577 8.376 127.041 7.896C127.521 7.4 127.761 6.688 127.761 5.76C127.761 4.704 127.529 3.952 127.065 3.504C126.601 3.04 125.849 2.808 124.809 2.808H119.577V8.616H125.001ZM125.145 16.416C126.201 16.416 126.993 16.176 127.521 15.696C128.065 15.216 128.337 14.408 128.337 13.272C128.337 12.168 128.057 11.384 127.497 10.92C126.937 10.44 126.065 10.2 124.881 10.2H119.577V16.416H125.145ZM134.544 1.224H136.416V18H134.544V1.224ZM141.234 1.224H143.106V16.416H152.034V18H141.234V1.224ZM155.4 1.224H166.2V2.808H157.272V8.808H163.968V10.392H157.272V16.416H166.2V18H155.4V1.224Z" fill="white"/>
</svg>
