<svg width="179" height="19" viewBox="0 0 179 19" fill="none" xmlns="http://www.w3.org/2000/svg">
<path d="M4.728 4.536H0V0.959999H13.728V4.536H8.976V17.736H4.728V4.536Z" fill="url(#paint0_linear_1099_1627)"/>
<path d="M23.9951 18.096C21.4671 18.096 19.5631 17.424 18.2831 16.08C17.0031 14.72 16.3631 12.928 16.3631 10.704V0.959999H20.6111V10.752C20.6111 11.872 20.9071 12.72 21.4991 13.296C22.1071 13.872 22.9391 14.16 23.9951 14.16C25.0511 14.16 25.8751 13.872 26.4671 13.296C27.0591 12.72 27.3551 11.872 27.3551 10.752V0.959999H31.6031V10.704C31.6031 12.944 30.9631 14.736 29.6831 16.08C28.4191 17.424 26.5231 18.096 23.9951 18.096Z" fill="url(#paint1_linear_1099_1627)"/>
<path d="M35.0794 0.959999H42.6154C44.5834 0.959999 46.1194 1.456 47.2234 2.448C48.3434 3.44 48.9034 4.864 48.9034 6.72C48.9034 7.968 48.6314 9.032 48.0874 9.912C47.5434 10.792 46.7754 11.448 45.7834 11.88L48.7594 17.736H44.3914L41.7274 12.48H39.3274V17.736H35.0794V0.959999ZM41.8714 8.904C42.7194 8.904 43.3754 8.744 43.8394 8.424C44.3034 8.088 44.5354 7.52 44.5354 6.72C44.5354 5.888 44.3034 5.32 43.8394 5.016C43.3914 4.696 42.7354 4.536 41.8714 4.536H39.3274V8.904H41.8714Z" fill="url(#paint2_linear_1099_1627)"/>
<path d="M52.035 0.959999H60.531C62.147 0.959999 63.419 1.36 64.347 2.16C65.291 2.96 65.763 4.104 65.763 5.592C65.763 6.296 65.603 6.952 65.283 7.56C64.963 8.168 64.507 8.648 63.915 9C64.731 9.32 65.331 9.784 65.715 10.392C66.099 10.984 66.291 11.76 66.291 12.72C66.291 13.744 66.051 14.64 65.571 15.408C65.091 16.16 64.443 16.736 63.627 17.136C62.827 17.536 61.931 17.736 60.939 17.736H52.035V0.959999ZM59.595 7.608C60.843 7.608 61.467 7.024 61.467 5.856C61.467 5.2 61.307 4.752 60.987 4.512C60.667 4.256 60.179 4.128 59.523 4.128H56.283V7.608H59.595ZM59.859 14.568C60.579 14.568 61.115 14.432 61.467 14.16C61.819 13.888 61.995 13.408 61.995 12.72C61.995 12.032 61.811 11.536 61.443 11.232C61.075 10.912 60.515 10.752 59.763 10.752H56.283V14.568H59.859Z" fill="url(#paint3_linear_1099_1627)"/>
<path d="M77.3471 18.096C75.6511 18.096 74.1151 17.728 72.7391 16.992C71.3791 16.256 70.2991 15.232 69.4991 13.92C68.7151 12.592 68.3231 11.072 68.3231 9.36C68.3231 7.648 68.7151 6.128 69.4991 4.8C70.2991 3.472 71.3791 2.44 72.7391 1.704C74.1151 0.967999 75.6511 0.599998 77.3471 0.599998C79.0271 0.599998 80.5471 0.967999 81.9071 1.704C83.2831 2.44 84.3631 3.472 85.1471 4.8C85.9311 6.128 86.3231 7.648 86.3231 9.36C86.3231 11.072 85.9311 12.592 85.1471 13.92C84.3631 15.232 83.2831 16.256 81.9071 16.992C80.5471 17.728 79.0271 18.096 77.3471 18.096ZM77.3471 14.112C78.1951 14.112 78.9711 13.92 79.6751 13.536C80.3791 13.152 80.9391 12.6 81.3551 11.88C81.7711 11.16 81.9791 10.32 81.9791 9.36C81.9791 8.4 81.7711 7.568 81.3551 6.864C80.9551 6.144 80.4031 5.592 79.6991 5.208C78.9951 4.808 78.2111 4.608 77.3471 4.608C76.4671 4.608 75.6751 4.808 74.9711 5.208C74.2671 5.592 73.7071 6.144 73.2911 6.864C72.8911 7.568 72.6911 8.4 72.6911 9.36C72.6911 10.32 72.8911 11.16 73.2911 11.88C73.7071 12.6 74.2671 13.152 74.9711 13.536C75.6911 13.92 76.4831 14.112 77.3471 14.112Z" fill="url(#paint4_linear_1099_1627)"/>
<path d="M99.7547 0.959999H101.099L107.843 15.72L114.563 0.959999H115.907V17.736H114.659V3.552L108.179 17.736H107.483L101.003 3.552V17.736H99.7547V0.959999Z" fill="url(#paint5_linear_1099_1627)"/>
<path d="M126.665 18.096C125.465 18.096 124.393 17.848 123.449 17.352C122.521 16.84 121.793 16.128 121.265 15.216C120.737 14.288 120.473 13.216 120.473 12C120.473 10.784 120.737 9.712 121.265 8.784C121.793 7.856 122.521 7.136 123.449 6.624C124.393 6.112 125.465 5.856 126.665 5.856C127.865 5.856 128.928 6.112 129.856 6.624C130.8 7.136 131.536 7.856 132.064 8.784C132.609 9.712 132.88 10.784 132.88 12C132.88 13.216 132.617 14.288 132.089 15.216C131.561 16.128 130.824 16.84 129.88 17.352C128.936 17.848 127.865 18.096 126.665 18.096ZM126.665 17.088C127.641 17.088 128.505 16.88 129.257 16.464C130.008 16.048 130.592 15.456 131.008 14.688C131.424 13.92 131.632 13.024 131.632 12C131.632 10.976 131.424 10.08 131.008 9.312C130.592 8.528 130.008 7.928 129.257 7.512C128.505 7.096 127.641 6.888 126.665 6.888C125.689 6.888 124.825 7.096 124.073 7.512C123.321 7.928 122.737 8.528 122.321 9.312C121.905 10.08 121.697 10.976 121.697 12C121.697 13.024 121.905 13.92 122.321 14.688C122.737 15.456 123.321 16.048 124.073 16.464C124.825 16.88 125.689 17.088 126.665 17.088Z" fill="url(#paint6_linear_1099_1627)"/>
<path d="M143.592 18.096C141.224 18.096 139.464 17.208 138.312 15.432V17.736H137.088V0H138.336V8.52C138.816 7.656 139.536 7 140.496 6.552C141.456 6.088 142.488 5.856 143.592 5.856C144.712 5.856 145.728 6.112 146.64 6.624C147.568 7.136 148.296 7.864 148.824 8.808C149.352 9.736 149.616 10.8 149.616 12C149.616 13.232 149.352 14.312 148.824 15.24C148.296 16.152 147.568 16.856 146.64 17.352C145.728 17.848 144.712 18.096 143.592 18.096ZM143.4 17.088C144.312 17.088 145.144 16.88 145.896 16.464C146.664 16.032 147.264 15.432 147.696 14.664C148.144 13.896 148.368 13.008 148.368 12C148.368 10.992 148.144 10.104 147.696 9.336C147.264 8.552 146.664 7.952 145.896 7.536C145.144 7.104 144.312 6.888 143.4 6.888C142.2 6.888 141.136 7.208 140.208 7.848C139.28 8.472 138.656 9.336 138.336 10.44V13.584C138.688 14.672 139.312 15.528 140.208 16.152C141.12 16.776 142.184 17.088 143.4 17.088Z" fill="url(#paint7_linear_1099_1627)"/>
<path d="M155.072 3.48C154.816 3.48 154.6 3.4 154.424 3.24C154.264 3.064 154.184 2.848 154.184 2.592C154.184 2.352 154.264 2.144 154.424 1.968C154.6 1.792 154.816 1.704 155.072 1.704C155.312 1.704 155.52 1.792 155.696 1.968C155.872 2.144 155.96 2.352 155.96 2.592C155.96 2.848 155.872 3.064 155.696 3.24C155.52 3.4 155.312 3.48 155.072 3.48ZM154.448 6.216H155.696V17.736H154.448V6.216Z" fill="url(#paint8_linear_1099_1627)"/>
<path d="M160.991 0H162.239V17.736H160.991V0Z" fill="url(#paint9_linear_1099_1627)"/>
<path d="M173.331 18.096C171.267 18.096 169.659 17.568 168.507 16.512C167.371 15.44 166.803 13.936 166.803 12C166.803 10.112 167.315 8.616 168.339 7.512C169.379 6.408 170.851 5.856 172.755 5.856C174.035 5.856 175.123 6.104 176.019 6.6C176.915 7.096 177.587 7.784 178.035 8.664C178.499 9.544 178.731 10.544 178.731 11.664V12.456H167.955C167.987 13.976 168.491 15.128 169.467 15.912C170.443 16.696 171.763 17.088 173.427 17.088C174.179 17.088 174.915 17.024 175.635 16.896C176.355 16.768 176.995 16.584 177.555 16.344V17.424C177.091 17.616 176.451 17.776 175.635 17.904C174.835 18.032 174.067 18.096 173.331 18.096ZM177.579 11.52C177.563 10.096 177.155 8.968 176.355 8.136C175.555 7.304 174.355 6.888 172.755 6.888C171.187 6.888 169.995 7.32 169.179 8.184C168.379 9.048 167.971 10.16 167.955 11.52H177.579Z" fill="url(#paint10_linear_1099_1627)"/>
<defs>
<linearGradient id="paint0_linear_1099_1627" x1="2.26" y1="3.236" x2="180.948" y2="63.0338" gradientUnits="userSpaceOnUse">
<stop stop-color="#2B59FF"/>
<stop offset="1" stop-color="#BB2BFF"/>
</linearGradient>
<linearGradient id="paint1_linear_1099_1627" x1="2.26" y1="3.236" x2="180.948" y2="63.0338" gradientUnits="userSpaceOnUse">
<stop stop-color="#2B59FF"/>
<stop offset="1" stop-color="#BB2BFF"/>
</linearGradient>
<linearGradient id="paint2_linear_1099_1627" x1="2.26" y1="3.236" x2="180.948" y2="63.0338" gradientUnits="userSpaceOnUse">
<stop stop-color="#2B59FF"/>
<stop offset="1" stop-color="#BB2BFF"/>
</linearGradient>
<linearGradient id="paint3_linear_1099_1627" x1="2.26" y1="3.236" x2="180.948" y2="63.0338" gradientUnits="userSpaceOnUse">
<stop stop-color="#2B59FF"/>
<stop offset="1" stop-color="#BB2BFF"/>
</linearGradient>
<linearGradient id="paint4_linear_1099_1627" x1="2.26" y1="3.236" x2="180.948" y2="63.0338" gradientUnits="userSpaceOnUse">
<stop stop-color="#2B59FF"/>
<stop offset="1" stop-color="#BB2BFF"/>
</linearGradient>
<linearGradient id="paint5_linear_1099_1627" x1="2.26" y1="3.236" x2="180.948" y2="63.0338" gradientUnits="userSpaceOnUse">
<stop stop-color="#2B59FF"/>
<stop offset="1" stop-color="#BB2BFF"/>
</linearGradient>
<linearGradient id="paint6_linear_1099_1627" x1="2.26" y1="3.236" x2="180.948" y2="63.0338" gradientUnits="userSpaceOnUse">
<stop stop-color="#2B59FF"/>
<stop offset="1" stop-color="#BB2BFF"/>
</linearGradient>
<linearGradient id="paint7_linear_1099_1627" x1="2.26" y1="3.236" x2="180.948" y2="63.0338" gradientUnits="userSpaceOnUse">
<stop stop-color="#2B59FF"/>
<stop offset="1" stop-color="#BB2BFF"/>
</linearGradient>
<linearGradient id="paint8_linear_1099_1627" x1="2.26" y1="3.236" x2="180.948" y2="63.0338" gradientUnits="userSpaceOnUse">
<stop stop-color="#2B59FF"/>
<stop offset="1" stop-color="#BB2BFF"/>
</linearGradient>
<linearGradient id="paint9_linear_1099_1627" x1="2.26" y1="3.236" x2="180.948" y2="63.0338" gradientUnits="userSpaceOnUse">
<stop stop-color="#2B59FF"/>
<stop offset="1" stop-color="#BB2BFF"/>
</linearGradient>
<linearGradient id="paint10_linear_1099_1627" x1="2.26" y1="3.236" x2="180.948" y2="63.0338" gradientUnits="userSpaceOnUse">
<stop stop-color="#2B59FF"/>
<stop offset="1" stop-color="#BB2BFF"/>
</linearGradient>
</defs>
</svg>
