<svg width="192" height="19" viewBox="0 0 192 19" fill="none" xmlns="http://www.w3.org/2000/svg">
<path d="M4.968 4.8H0.24V1.224H13.968V4.8H9.216V18H4.968V4.8ZM24.2351 18.36C21.7071 18.36 19.8031 17.688 18.5231 16.344C17.2431 14.984 16.6031 13.192 16.6031 10.968V1.224H20.8511V11.016C20.8511 12.136 21.1471 12.984 21.7391 13.56C22.3471 14.136 23.1791 14.424 24.2351 14.424C25.2911 14.424 26.1151 14.136 26.7071 13.56C27.2991 12.984 27.5951 12.136 27.5951 11.016V1.224H31.8431V10.968C31.8431 13.208 31.2031 15 29.9231 16.344C28.6591 17.688 26.7631 18.36 24.2351 18.36ZM35.3194 1.224H42.8554C44.8234 1.224 46.3594 1.72 47.4634 2.712C48.5834 3.704 49.1434 5.128 49.1434 6.984C49.1434 8.232 48.8714 9.296 48.3274 10.176C47.7834 11.056 47.0154 11.712 46.0234 12.144L48.9994 18H44.6314L41.9674 12.744H39.5674V18H35.3194V1.224ZM42.1114 9.168C42.9594 9.168 43.6154 9.008 44.0794 8.688C44.5434 8.352 44.7754 7.784 44.7754 6.984C44.7754 6.152 44.5434 5.584 44.0794 5.28C43.6314 4.96 42.9754 4.8 42.1114 4.8H39.5674V9.168H42.1114ZM52.275 1.224H60.771C62.387 1.224 63.659 1.624 64.587 2.424C65.531 3.224 66.003 4.368 66.003 5.856C66.003 6.56 65.843 7.216 65.523 7.824C65.203 8.432 64.747 8.912 64.155 9.264C64.971 9.584 65.571 10.048 65.955 10.656C66.339 11.248 66.531 12.024 66.531 12.984C66.531 14.008 66.291 14.904 65.811 15.672C65.331 16.424 64.683 17 63.867 17.4C63.067 17.8 62.171 18 61.179 18H52.275V1.224ZM59.835 7.872C61.083 7.872 61.707 7.288 61.707 6.12C61.707 5.464 61.547 5.016 61.227 4.776C60.907 4.52 60.419 4.392 59.763 4.392H56.523V7.872H59.835ZM60.099 14.832C60.819 14.832 61.355 14.696 61.707 14.424C62.059 14.152 62.235 13.672 62.235 12.984C62.235 12.296 62.051 11.8 61.683 11.496C61.315 11.176 60.755 11.016 60.003 11.016H56.523V14.832H60.099ZM77.5871 18.36C75.8911 18.36 74.3551 17.992 72.9791 17.256C71.6191 16.52 70.5391 15.496 69.7391 14.184C68.9551 12.856 68.5631 11.336 68.5631 9.624C68.5631 7.912 68.9551 6.392 69.7391 5.064C70.5391 3.736 71.6191 2.704 72.9791 1.968C74.3551 1.232 75.8911 0.863999 77.5871 0.863999C79.2671 0.863999 80.7871 1.232 82.1471 1.968C83.5231 2.704 84.6031 3.736 85.3871 5.064C86.1711 6.392 86.5631 7.912 86.5631 9.624C86.5631 11.336 86.1711 12.856 85.3871 14.184C84.6031 15.496 83.5231 16.52 82.1471 17.256C80.7871 17.992 79.2671 18.36 77.5871 18.36ZM77.5871 14.376C78.4351 14.376 79.2111 14.184 79.9151 13.8C80.6191 13.416 81.1791 12.864 81.5951 12.144C82.0111 11.424 82.2191 10.584 82.2191 9.624C82.2191 8.664 82.0111 7.832 81.5951 7.128C81.1951 6.408 80.6431 5.856 79.9391 5.472C79.2351 5.072 78.4511 4.872 77.5871 4.872C76.7071 4.872 75.9151 5.072 75.2111 5.472C74.5071 5.856 73.9471 6.408 73.5311 7.128C73.1311 7.832 72.9311 8.664 72.9311 9.624C72.9311 10.584 73.1311 11.424 73.5311 12.144C73.9471 12.864 74.5071 13.416 75.2111 13.8C75.9311 14.184 76.7231 14.376 77.5871 14.376ZM99.9947 1.224H101.339L108.083 15.984L114.803 1.224H116.147V18H114.899V3.816L108.419 18H107.723L101.243 3.816V18H99.9947V1.224ZM126.905 18.36C125.705 18.36 124.633 18.112 123.689 17.616C122.761 17.104 122.033 16.392 121.505 15.48C120.977 14.552 120.713 13.48 120.713 12.264C120.713 11.048 120.977 9.976 121.505 9.048C122.033 8.12 122.761 7.4 123.689 6.888C124.633 6.376 125.705 6.12 126.905 6.12C128.105 6.12 129.169 6.376 130.097 6.888C131.041 7.4 131.777 8.12 132.305 9.048C132.849 9.976 133.121 11.048 133.121 12.264C133.121 13.48 132.857 14.552 132.329 15.48C131.801 16.392 131.065 17.104 130.121 17.616C129.177 18.112 128.105 18.36 126.905 18.36ZM126.905 17.352C127.881 17.352 128.745 17.144 129.497 16.728C130.249 16.312 130.833 15.72 131.249 14.952C131.665 14.184 131.873 13.288 131.873 12.264C131.873 11.24 131.665 10.344 131.249 9.576C130.833 8.792 130.249 8.192 129.497 7.776C128.745 7.36 127.881 7.152 126.905 7.152C125.929 7.152 125.065 7.36 124.313 7.776C123.561 8.192 122.977 8.792 122.561 9.576C122.145 10.344 121.937 11.24 121.937 12.264C121.937 13.288 122.145 14.184 122.561 14.952C122.977 15.72 123.561 16.312 124.313 16.728C125.065 17.144 125.929 17.352 126.905 17.352ZM143.832 18.36C141.464 18.36 139.704 17.472 138.552 15.696V18H137.328V0.263999H138.576V8.784C139.056 7.92 139.776 7.264 140.736 6.816C141.696 6.352 142.728 6.12 143.832 6.12C144.952 6.12 145.968 6.376 146.88 6.888C147.808 7.4 148.536 8.128 149.064 9.072C149.592 10 149.856 11.064 149.856 12.264C149.856 13.496 149.592 14.576 149.064 15.504C148.536 16.416 147.808 17.12 146.88 17.616C145.968 18.112 144.952 18.36 143.832 18.36ZM143.64 17.352C144.552 17.352 145.384 17.144 146.136 16.728C146.904 16.296 147.504 15.696 147.936 14.928C148.384 14.16 148.608 13.272 148.608 12.264C148.608 11.256 148.384 10.368 147.936 9.6C147.504 8.816 146.904 8.216 146.136 7.8C145.384 7.368 144.552 7.152 143.64 7.152C142.44 7.152 141.376 7.472 140.448 8.112C139.52 8.736 138.896 9.6 138.576 10.704V13.848C138.928 14.936 139.552 15.792 140.448 16.416C141.36 17.04 142.424 17.352 143.64 17.352ZM155.312 3.744C155.056 3.744 154.84 3.664 154.664 3.504C154.504 3.328 154.424 3.112 154.424 2.856C154.424 2.616 154.504 2.408 154.664 2.232C154.84 2.056 155.056 1.968 155.312 1.968C155.552 1.968 155.76 2.056 155.936 2.232C156.112 2.408 156.2 2.616 156.2 2.856C156.2 3.112 156.112 3.328 155.936 3.504C155.76 3.664 155.552 3.744 155.312 3.744ZM154.688 6.48H155.936V18H154.688V6.48ZM161.231 0.263999H162.479V18H161.231V0.263999ZM173.571 18.36C171.507 18.36 169.899 17.832 168.747 16.776C167.611 15.704 167.043 14.2 167.043 12.264C167.043 10.376 167.555 8.88 168.579 7.776C169.619 6.672 171.091 6.12 172.995 6.12C174.275 6.12 175.363 6.368 176.259 6.864C177.155 7.36 177.827 8.048 178.275 8.928C178.739 9.808 178.971 10.808 178.971 11.928V12.72H168.195C168.227 14.24 168.731 15.392 169.707 16.176C170.683 16.96 172.003 17.352 173.667 17.352C174.419 17.352 175.155 17.288 175.875 17.16C176.595 17.032 177.235 16.848 177.795 16.608V17.688C177.331 17.88 176.691 18.04 175.875 18.168C175.075 18.296 174.307 18.36 173.571 18.36ZM177.819 11.784C177.803 10.36 177.395 9.232 176.595 8.4C175.795 7.568 174.595 7.152 172.995 7.152C171.427 7.152 170.235 7.584 169.419 8.448C168.619 9.312 168.211 10.424 168.195 11.784H177.819ZM187.309 18.36C186.589 18.36 185.813 18.248 184.981 18.024C184.165 17.816 183.533 17.552 183.085 17.232V16.152C183.677 16.52 184.341 16.816 185.077 17.04C185.829 17.248 186.565 17.352 187.285 17.352C189.397 17.352 190.453 16.68 190.453 15.336C190.453 14.872 190.357 14.496 190.165 14.208C189.973 13.904 189.629 13.632 189.133 13.392C188.637 13.152 187.909 12.904 186.949 12.648C186.005 12.392 185.261 12.136 184.717 11.88C184.189 11.608 183.781 11.264 183.493 10.848C183.205 10.432 183.061 9.888 183.061 9.216C183.061 8.208 183.453 7.44 184.237 6.912C185.037 6.384 186.101 6.12 187.429 6.12C188.901 6.12 190.093 6.36 191.005 6.84V7.92C190.061 7.408 188.885 7.152 187.477 7.152C186.453 7.152 185.661 7.32 185.101 7.656C184.557 7.992 184.285 8.512 184.285 9.216C184.285 9.696 184.381 10.072 184.573 10.344C184.765 10.616 185.101 10.856 185.581 11.064C186.077 11.272 186.829 11.512 187.837 11.784C189.245 12.168 190.237 12.624 190.813 13.152C191.389 13.68 191.677 14.408 191.677 15.336C191.677 16.264 191.309 17 190.573 17.544C189.853 18.088 188.765 18.36 187.309 18.36Z" fill="white"/>
</svg>
