<svg width="37" height="54" viewBox="0 0 37 54" fill="none" xmlns="http://www.w3.org/2000/svg">
<rect x="2" y="26" width="31.1111" height="23.3333" fill="url(#paint0_linear_1143_3260)"/>
<path d="M11.6127 28.5042H10.3537C9.52306 28.5042 8.84961 29.1771 8.84961 30.0077V33.4355H11.6126L11.6127 28.5042Z" fill="#FFC266"/>
<path d="M13.2793 28.5042H17.1265V33.4355H13.2793V28.5042Z" fill="#FFC266"/>
<path d="M18.8062 28.5042H22.8168V33.4355H18.8062V28.5042Z" fill="#FFC266"/>
<path d="M13.2793 41.9568H17.1265V46.8881H13.2793V41.9568Z" fill="#FFC266"/>
<path d="M8.84912 45.385C8.84912 46.2157 9.52259 46.8886 10.3532 46.8886H11.6122V41.9573H8.84915L8.84912 45.385Z" fill="#FFC266"/>
<path d="M34.2519 1.006e-06H9.2796C8.77268 -0.000519411 8.28606 0.200894 7.92752 0.559483L0.559483 7.93898C0.200894 8.29757 -0.000518614 8.7842 1.00292e-06 9.29105V52.1582C1.00292e-06 53.1756 0.824395 54 1.84185 54H34.2513C34.74 54 35.2084 53.8064 35.554 53.4608C35.899 53.1152 36.0932 52.6468 36.0932 52.1581V1.84185C36.0932 0.824368 35.2688 1.006e-06 34.2513 1.006e-06H34.2519ZM28.9126 45.3853C28.9157 46.2284 28.5826 47.0376 27.9878 47.6352C27.3929 48.2322 26.5847 48.5678 25.7416 48.5678H10.3529C9.51184 48.5678 8.70516 48.2337 8.1108 47.6388C7.51593 47.0445 7.18179 46.2377 7.18179 45.3968V30.0081C7.18179 29.167 7.51592 28.3609 8.1108 27.766C8.70515 27.1711 9.5119 26.837 10.3529 26.837H25.7416C26.5826 26.837 27.3893 27.1711 27.9836 27.766C28.5785 28.3609 28.9126 29.1671 28.9126 30.0081L28.9126 45.3853Z" fill="url(#paint1_linear_1143_3260)"/>
<path d="M18.8062 41.9568H22.8168V46.8881H18.8062V41.9568Z" fill="#FFC266"/>
<path d="M25.7424 28.5042H24.4834V33.4355H27.2464V30.0077C27.2464 29.1771 26.573 28.5042 25.7424 28.5042Z" fill="#FFC266"/>
<path d="M8.84937 40.2901H23.7717C24.1647 40.2901 24.4832 40.6086 24.4832 41.001V46.8884H25.7421C26.1408 46.8884 26.5233 46.7302 26.8054 46.4481C27.0875 46.166 27.2462 45.7835 27.2462 45.3849V35.1606H8.84912L8.84937 40.2901Z" fill="#FFC266"/>
<defs>
<linearGradient id="paint0_linear_1143_3260" x1="17.5556" y1="26" x2="17.5556" y2="49.3333" gradientUnits="userSpaceOnUse">
<stop stop-color="#D88D1C"/>
<stop offset="1" stop-color="#F2A50F"/>
</linearGradient>
<linearGradient id="paint1_linear_1143_3260" x1="60.9682" y1="-30.6486" x2="-17.6627" y2="21.4584" gradientUnits="userSpaceOnUse">
<stop stop-color="#7F87A0"/>
<stop offset="1" stop-color="#314176"/>
</linearGradient>
</defs>
</svg>
